<svg width="148" height="112" viewBox="0 0 148 112" fill="none" xmlns="http://www.w3.org/2000/svg">
<path d="M60.0999 79.9L55.0999 74.2L49.8 79.9H33.5V62.9H50.0999L55.0999 68.5L60.4 62.9H73.3C76.6 62.9 80.3 63.9 80.3 68.5C80.3 73.2 76.7 74.2 73.3 74.2H68.3V79.8C68.4 79.9 60.0999 79.9 60.0999 79.9ZM47.8 66.3H37.5V69.6H46.5V72.9H37.5V76.2H47.4L52.0999 71.2L47.8 66.3ZM63.6999 64.6L57.4 71.2L63.6999 78.2V64.6ZM73 70.9C74.6 70.9 75.6 70.2 75.6 68.6C75.6 67 74.5999 66.6 72.8999 66.6H67.5999V70.9H73ZM82 80.2V62.9H91.3C94.9 62.9 98.3 63.6 98.3 67.6C98.3 69.6 97.2 71.4 95.3 72.3C97 73 97.8999 74 97.8999 76.9V80.2H93.8999V78.2C93.8999 74.9 93.2 74.2 90.3 74.2H86V80.5L82 80.2ZM91.3 70.3C92.9 70.3 94.3 70 94.3 68.3C94.3 66.6 93 66.3 91.7 66.3H86.7V70.3H91.3ZM114.5 76.6V80.3H100.9V62.9H114.5V66.2H104.9V69.5H114.2V72.8H104.9V76.1L114.5 76.6ZM125.4 69.6C130 69.6 131.4 71.6 131.4 74.6C131.4 78.3 129.1 79.9 125.1 79.9H117.1V76.3H125.1C126.8 76.3 127.1 75.6 127.1 74.6C127.1 73.6 126.4 72.9 125.1 72.9C121.1 72.9 116.5 72.9 116.5 67.6C116.5 65.3 118.2 62.6 122.5 62.6H130.8V66.3H123.2C121.9 66.3 120.9 66.6 120.9 68C120.8 69.9 125.4 69.6 125.4 69.6ZM114.1 50.7L112.4 46.7H103.8L102.5 50.7H97.8999C92.8999 50.7 89.8999 48.4 89.8999 42.4C89.8999 36.1 92.9 33.8 98.2 33.8H102.2V37.5H98.2C95.6 37.5 93.8999 38.5 93.8999 42.5C93.8999 46.8 95.5999 47.5 97.8999 47.5H99.8999L105.5 33.9H111.5L118.5 50.1V33.8H124.8L132.1 45.7V33.8H136.4V51H130.8L122.5 37.7V50.6H114.1V50.7ZM108.2 36.4L105.5 43H111.1L108.2 36.4ZM83.3 50.7V33.4H87.6V50.7H83.3ZM64.4 50.7V33.4H73.7C77.7 33.4 80.7 34.1 80.7 38.1C80.7 40.1 79.6 41.9 77.7 42.7C79.4 43.4 80.3999 44.4 80.3999 47.4V50.7H76.3999V48.4C76.3999 45.1 75.7 44.4 72.7 44.4H68.3999V50.7H64.4ZM73.7 40.7C75.4 40.7 76.7 40.4 76.7 38.7C76.7 37 75.4 37 74 37H69V40.7H73.7ZM61.6999 47V50.7H48.0999V33.4H61.6999V37.1H52.0999V40.1H61.4V43.8H52.0999V47H61.6999ZM16.9 50.7L15.3 47H6.99995L5.29995 50.7H0.99995L8.29995 33.4H14.3L21.3 49.7V33.4H27.9L33.1999 45L38.1999 33.4H45.1999V50.7H40.9V37.4L34.9 50.7H31.1999L25.1999 37.4V50.7H16.9ZM11 36.4L8.29995 43H13.9L11 36.4ZM133.7 60.9V59.6H122.4C120.7 59.6 118.4 59.9 117.4 60.9V59.6H97.5V60.9C95.8 59.6 93.1999 59.6 91.8999 59.6H78.6V60.9C77.6 59.6 74.5999 59.6 72.8999 59.6H58L54.6999 63.3L51.4 59.6H29.5V83.5H51.0999L54.4 79.8L57.6999 83.5H71V77.9C71 77.9 75 77.9 78 76.9V83.2H88.8999V76.9H89.6C90.3 76.9 90.3 76.9 90.3 77.6V83.3H123.8C125.8 83.3 128.1 82.6 129.4 81.6V83.3H140C142.3 83.3 144.3 83 146 82.3V112H0.99995L0.699951 54H7.69995L9.39995 50.3H13L14.6999 54H28.3V51L29.5999 54H36.9L38.1999 51V54H72.3999V47.7H72.7C73 47.7 73.3999 47.7 73.3999 48.4V53.7H91V52.4C92.3 53.1 94.6 53.7 97.6 53.7H104.9L106.6 50H110.2L111.9 53.7H126.2V50L128.5 53.7H140V29.8H128.7V32.5L127 29.8H115.4V32.5L114.1 29.8H98.2C95.6 29.8 93.2 30.1 91.2 31.1V29.8H80.2V31.1C78.9 30.1 77.5 29.8 75.6 29.8H35.8L33.0999 36.1L30.4 29.8H17.9V32.5L16.1999 30.2H5.69995L0.699951 42.8V0.5H146L146.4 59.6H138.8C136.4 59.6 134.7 60 133.7 60.9ZM140.7 79.9H132.7V76.2H140.7C142.3 76.2 142.7 75.5 142.7 74.5C142.7 73.5 142 72.8 140.7 72.8C136.7 72.8 132.1 72.8 132.1 67.5C132.1 65.2 133.8 62.5 138.1 62.5H146.4V66.2H139.1C137.8 66.2 136.8 66.5 136.8 67.9C136.8 69.6 141.4 69.6 141.4 69.6C147 69.6 147.4 72.6 147.4 74.6C147.3 75.9 147 80.2 140.7 79.9Z" fill="url(#paint0_radial)"/>
<defs>
<radialGradient id="paint0_radial" cx="0" cy="0" r="1" gradientUnits="userSpaceOnUse" gradientTransform="translate(27.2433 6.16954) scale(138.846)">
<stop stop-color="#8AC6EC"/>
<stop offset="1" stop-color="#2760AD"/>
</radialGradient>
</defs>
</svg>
