<?xml version="1.0" encoding="utf-8"?>
<!-- Generator: Adobe Illustrator 25.2.1, SVG Export Plug-In . SVG Version: 6.00 Build 0)  -->
<svg version="1.1" id="Layer_1" xmlns="http://www.w3.org/2000/svg" xmlns:xlink="http://www.w3.org/1999/xlink" x="0px" y="0px"
	 viewBox="0 0 256 168" style="enable-background:new 0 0 256 168;" xml:space="preserve">
<style type="text/css">
	.st0{fill:#FFFFFF;}
	.st1{fill:#0064A7;}
</style>
<path class="st0" d="M240,0.8H16C8,0.8,0.8,7.2,0.8,16v136.8c0,8,6.4,15.2,15.2,15.2h224c8,0,15.2-6.4,15.2-15.2V16
	C254.4,7.2,248,0.8,240,0.8z"/>
<path class="st0" d="M240.8,2.4c7.2,0,12.8,5.6,12.8,12.8v137.6c0,7.2-5.6,12.8-12.8,12.8H15.2c-7.2,0-12.8-5.6-12.8-12.8V15.2
	C2.4,8,8,2.4,15.2,2.4H240.8 M240.8,0H15.2C7.2,0,0,6.4,0,15.2v137.6c0,8,6.4,15.2,15.2,15.2h225.6c8,0,15.2-6.4,15.2-15.2V15.2
	C256,6.4,249.6,0,240.8,0z"/>
<path class="st1" d="M137.6,111.2c24.8,0,48-20,48-44.8c0-27.2-22.4-45.6-48-45.6H116c-25.6,0-45.6,18.4-45.6,45.6
	c0,24.8,20.8,45.6,45.6,44.8H137.6z"/>
<path class="st0" d="M125.6,89.6V40c9.6,4,16.8,13.6,16.8,24.8C142.4,76.8,136,86.4,125.6,89.6 M89.6,64.8
	c0-11.2,7.2-20.8,16.8-24.8v49.6C96.8,86.4,89.6,76.8,89.6,64.8 M116,23.2c-23.2,0-41.6,18.4-41.6,41.6s18.4,41.6,41.6,41.6
	s41.6-18.4,41.6-41.6C157.6,42.4,139.2,23.2,116,23.2"/>
<path d="M12.2,148v-0.9h1.2c1.3,0,2.3-0.4,2.9-1.3c0.3-0.5,0.5-1.7,0.5-3.5v-20.5c0-2-0.2-3.2-0.7-3.7c-0.6-0.7-1.5-1-2.7-1h-1.2
	v-0.9h12.9c4.8,0,8.4,0.5,10.8,1.6c2.5,1.1,4.6,3,6,5.4c1.5,2.6,2.3,5.7,2.3,8.7c0,4.4-1.3,8.1-4,11.1c-3,3.3-7.6,5-13.8,5H12.2z
	 M21.2,145.7c2,0.4,3.6,0.7,5,0.7c3.6,0,6.6-1.3,9-3.8s3.6-6,3.6-10.4c0-4.4-1.2-7.8-3.6-10.4c-2.4-2.5-5.5-3.8-9.2-3.8
	c-1.4,0-3,0.2-4.8,0.7L21.2,145.7C21.2,145.7,21.2,145.7,21.2,145.7z M54.9,125.9v17.2c0,1.3,0.1,2.2,0.3,2.7c0.2,0.4,0.5,0.8,0.9,1
	s1.1,0.3,2.1,0.3v0.8H47.7v-0.8c1,0,1.8-0.1,2.1-0.3c0.4-0.2,0.7-0.6,0.9-1c0.3-0.9,0.4-1.8,0.3-2.7v-8.3c0-2.3-0.1-3.8-0.2-4.5
	c-0.1-0.5-0.3-0.9-0.5-1c-0.2-0.2-0.6-0.3-1-0.3c-0.4,0-1,0.1-1.6,0.4l-0.3-0.9l6.5-2.6C53.9,125.9,54.9,125.9,54.9,125.9z
	 M53,114.7c0.7,0,1.2,0.2,1.7,0.7s0.7,1,0.7,1.7s-0.2,1.2-0.7,1.7s-1,0.7-1.7,0.7c-0.6,0-1.3-0.2-1.7-0.7c-0.5-0.5-0.7-1-0.7-1.7
	s0.2-1.2,0.7-1.7S52.3,114.7,53,114.7z M67.1,130.4c2.5-3,4.9-4.5,7.2-4.5c1.2,0,2.2,0.3,3,0.9c1,0.7,1.7,1.8,2,2.9
	c0.3,0.9,0.5,2.4,0.5,4.3v9.2c0,1.4,0.1,2.3,0.3,2.8c0.2,0.4,0.5,0.7,0.8,0.9c0.4,0.2,1.1,0.3,2.1,0.3v0.8H72.5v-0.8h0.4
	c1,0,1.7-0.2,2.1-0.5s0.7-0.8,0.8-1.4c0.1-0.2,0.1-1,0.1-2.2v-8.8c0-1.9-0.3-3.4-0.8-4.2c-0.5-0.9-1.4-1.3-2.6-1.3
	c-1.9,0-3.7,1-5.6,3.1v11.3c0,1.4,0.1,2.4,0.3,2.7c0.2,0.4,0.5,0.8,0.9,1c0.7,0.3,1.5,0.4,2.3,0.3v0.8H60v-0.8h0.5
	c1.1,0,1.8-0.3,2.2-0.8c0.4-0.6,0.6-1.6,0.6-3.2v-8c0-2.6-0.1-4.1-0.2-4.7c-0.1-0.6-0.3-0.9-0.5-1.1s-0.6-0.3-1-0.3
	c-0.4,0-1,0.1-1.6,0.4l-0.4-0.9l6.5-2.6h1L67.1,130.4L67.1,130.4z M88.4,134.6c0,3.2,0.8,5.7,2.3,7.5c1.6,1.8,3.4,2.7,5.5,2.7
	c1.4,0,2.6-0.4,3.7-1.2c1-0.8,1.9-2.1,2.6-4l0.7,0.5c-0.4,2.2-1.3,4.2-2.9,5.9c-1.5,1.7-3.7,2.7-5.9,2.6c-2.6,0-4.8-1-6.6-3
	c-1.8-2-2.8-4.7-2.8-8.1c0-3.7,0.9-6.5,2.8-8.6s4.2-3.1,7.1-3.1c2.4,0,4.4,0.8,5.9,2.4c1.5,1.6,2.3,3.7,2.3,6.4H88.4z M88.4,133.3
	h9.9c0-1-0.2-2-0.5-2.9c-0.7-1.7-2.3-2.8-4.2-2.8c-1.3,0-2.4,0.5-3.5,1.5C89.2,130.2,88.5,131.7,88.4,133.3L88.4,133.3z
	 M112.4,125.9v4.8c1.8-3.2,3.6-4.8,5.5-4.8c0.9,0,1.6,0.3,2.1,0.8s0.8,1.1,0.8,1.8c0,0.6-0.2,1.1-0.6,1.5c-0.4,0.4-0.9,0.6-1.5,0.6
	c-0.5,0-1.2-0.3-1.8-0.8c-0.7-0.5-1.2-0.8-1.5-0.8c-0.3,0-0.6,0.1-0.9,0.5c-0.7,0.6-1.4,1.7-2.2,3.2V143c0,1.2,0.1,2.1,0.4,2.7
	c0.2,0.4,0.6,0.8,1.1,1.1s1.3,0.4,2.2,0.4v0.9h-11v-0.8c1.1,0,1.9-0.2,2.4-0.5c0.4-0.3,0.7-0.7,0.8-1.2c0.1-0.3,0.1-1,0.1-2.3v-8.3
	c0-2.5-0.1-4-0.2-4.5s-0.3-0.8-0.6-1.1c-0.3-0.2-0.7-0.3-1-0.3c-0.6,0-1.1,0.1-1.6,0.4l-0.2-0.9l6.5-2.6L112.4,125.9L112.4,125.9z
	 M136,125.9v7.3h-0.8c-0.6-2.3-1.4-3.9-2.3-4.7c-1-0.8-2.3-1.3-3.6-1.2c-1.1,0-2,0.3-2.7,0.9s-1,1.2-1,1.9c0,0.9,0.2,1.6,0.8,2.2
	c0.5,0.6,1.5,1.3,2.9,2l3.4,1.7c3.2,1.6,4.8,3.6,4.8,6.1c0,1.9-0.7,3.5-2.2,4.7c-1.4,1.2-3.1,1.8-5,1.8c-1.3,0-2.8-0.2-4.5-0.7
	c-0.4-0.1-0.8-0.2-1.3-0.2c-0.4,0-0.7,0.2-0.8,0.6h-0.8v-7.7h0.8c0.4,2.2,1.3,3.8,2.5,4.9c1.1,1.1,2.6,1.7,4.2,1.7
	c1.1,0,1.9-0.3,2.6-0.9c0.7-0.6,1-1.4,1-2.3c0-1.1-0.4-2-1.1-2.7s-2.3-1.7-4.5-2.8c-2.3-1.1-3.8-2.1-4.4-3c-0.7-1-1.1-2.2-1.1-3.4
	c0-1.8,0.6-3.2,1.8-4.4c1.3-1.2,3-1.9,4.7-1.8c0.8,0,1.9,0.2,3.1,0.5c0.8,0.2,1.3,0.3,1.6,0.3c0.2,0,0.4-0.1,0.6-0.2
	c0.1-0.1,0.3-0.4,0.5-0.7H136L136,125.9z M180.2,115.5l0.7,10.8h-0.7c-1-3.2-2.4-5.6-4.1-7c-1.8-1.4-4.1-2.2-6.5-2.1
	c-2.1,0-4,0.5-5.7,1.6c-1.7,1.1-3,2.8-4,5.1c-1,2.3-1.5,5.3-1.5,8.7c0,2.9,0.5,5.4,1.4,7.5s2.3,3.7,4.2,4.9c1.9,1.1,4.1,1.7,6.3,1.7
	c2.1,0,3.9-0.4,5.5-1.3s3.3-2.6,5.2-5.3l0.7,0.5c-1.6,2.8-3.4,4.9-5.6,6.2s-4.6,2-7.6,2c-5.3,0-9.3-1.9-12.2-5.9
	c-2.2-3-3.3-6.6-3.2-10.3c0-3.2,0.7-6.1,2.1-8.7c1.3-2.6,3.4-4.7,5.9-6.2c2.5-1.5,5.2-2.2,8.2-2.2c2.3,0,4.6,0.6,6.8,1.7
	c0.4,0.3,0.9,0.4,1.4,0.5c0.4,0,0.8-0.2,1.1-0.4c0.4-0.4,0.7-1,0.9-1.8L180.2,115.5L180.2,115.5z M192.2,114.7v28.5
	c0,1.3,0.1,2.2,0.3,2.7s0.5,0.8,0.9,1s1.2,0.3,2.3,0.3v0.8h-10.5v-0.8c1,0,1.7-0.1,2-0.3s0.6-0.6,0.8-1s0.3-1.4,0.3-2.7v-19.5
	c0-2.4-0.1-3.9-0.2-4.5c-0.1-0.6-0.3-0.9-0.5-1.1c-0.3-0.2-0.6-0.3-0.9-0.3c-0.4,0-0.9,0.1-1.6,0.4l-0.4-0.8l6.4-2.6L192.2,114.7
	L192.2,114.7z M217,126.5v13c0,2.5,0.1,4,0.2,4.6c0.1,0.6,0.3,0.9,0.6,1.2c0.2,0.2,0.6,0.3,0.9,0.3c0.6,0,1.1-0.2,1.6-0.4l0.3,0.8
	l-6.4,2.6h-1.1v-4.6c-1.8,2-3.2,3.3-4.2,3.8c-1,0.5-2,0.8-3.1,0.8c-1.1,0-2.2-0.3-3.1-1c-0.9-0.7-1.5-1.6-1.8-2.7
	c-0.3-1.1-0.5-2.6-0.5-4.6v-9.6c0.1-0.7-0.1-1.4-0.3-2.1c-0.2-0.4-0.5-0.7-1-0.9s-1.2-0.3-2.3-0.3v-0.9h7.5v14.4c0,2,0.3,3.3,1,3.9
	c0.7,0.6,1.5,0.9,2.5,0.9c0.7,0,1.4-0.2,2.3-0.6c1.1-0.6,2.2-1.5,3-2.4v-12.2c0-1.2-0.2-2-0.7-2.5c-0.4-0.4-1.4-0.7-2.8-0.7v-0.9
	L217,126.5L217,126.5z M228,130.2c2.1-2.9,4.3-4.3,6.7-4.3c2.2,0,4.1,0.9,5.8,2.8c1.6,1.9,2.5,4.5,2.5,7.7c0,3.8-1.3,6.9-3.8,9.2
	c-2.9,2.9-7.2,3.8-11.1,2.3c-1.4-0.5-2.7-1.2-3.9-2v-22.2c0-2.4-0.1-3.9-0.2-4.5c-0.1-0.6-0.3-0.9-0.6-1.2s-0.6-0.3-0.9-0.3
	c-0.4,0-1,0.1-1.6,0.4l-0.3-0.8l6.4-2.6h1.1L228,130.2L228,130.2z M228,131.7v12.9c0.8,0.8,1.6,1.4,2.5,1.8c0.9,0.4,1.7,0.6,2.6,0.6
	c1.4,0,2.8-0.8,4-2.4c1.2-1.6,1.8-3.8,1.8-6.8c0-2.8-0.6-4.9-1.8-6.3c-1.2-1.5-2.6-2.2-4.2-2.2c-0.8,0-1.7,0.2-2.5,0.6
	C229.8,130.2,229,130.8,228,131.7z"/>
</svg>
