<?xml version="1.0" encoding="utf-8"?>
<!-- Generator: Adobe Illustrator 25.2.1, SVG Export Plug-In . SVG Version: 6.00 Build 0)  -->
<svg version="1.1" id="Layer_1" xmlns="http://www.w3.org/2000/svg" xmlns:xlink="http://www.w3.org/1999/xlink" x="0px" y="0px"
	 viewBox="0 0 256 168" style="enable-background:new 0 0 256 168;" xml:space="preserve">
<style type="text/css">
	.st0{fill:#FFFFFF;}
	.st1{fill:#050013;}
	.st2{fill:#009DD7;}
	.st3{fill:#FFF200;}
	.st4{fill:#E33206;}
</style>
<path class="st0" d="M240,0.8H16C8,0.8,1.6,7.2,1.6,16v136c0,8,6.4,15.2,15.2,15.2h224c8,0,15.2-6.4,15.2-15.2V16
	C254.4,7.2,248,0.8,240,0.8z"/>
<path class="st0" d="M240.8,2.4c7.2,0,12.8,5.6,12.8,12.8v137.6c0,7.2-5.6,12.8-12.8,12.8H15.2c-7.2,0-12.8-5.6-12.8-12.8V15.2
	C2.4,8,8,2.4,15.2,2.4H240.8 M240.8,0H15.2C6.4,0,0,6.4,0,15.2v137.6c0,8,6.4,15.2,15.2,15.2h225.6c8,0,15.2-6.4,15.2-15.2V15.2
	C256,6.4,249.6,0,240.8,0z"/>
<g>
	<path class="st1" d="M128,21c34.5,0,63,28.5,63,63s-28.5,63-63,63s-63-28.5-63-63S93.5,21,128,21z"/>
	<path class="st0" d="M100.8,67.4c-10.6,0-19.2,8.6-19.2,19.2c0,4,1.3,7.3,2.7,10.6l19.2-8.6l8-3.3l8-3.3
		C117.4,74,110.1,67.4,100.8,67.4z M90.2,87.3V86c0-6,4.6-11.3,11.3-11.3c2.7,0.7,6,2,8,4.7L90.2,87.3z M114.7,100.6
		c-6.6,6.6-15.9,7.3-23.9,2.7l4.7-6.6c4.6,2.7,9.3,2,13.9-1.3L114.7,100.6L114.7,100.6z M122,95.3V58.8h6.6v35.8
		c0,0.7,0,0.7,0.7,0.7l6,2.7l-2.6,7.3l-7.3-3.3C123.4,100.6,122,99.2,122,95.3L122,95.3z"/>
	<path class="st2" d="M148.6,94.6c-2.6-2-4-5.3-4-8.6s1.3-6,3.3-8l-4.6-7.3c-4.6,3.3-7.3,9.3-7.3,15.3c0,6.6,3.3,12.6,8.6,15.9
		C144.6,101.9,148.6,94.6,148.6,94.6z"/>
	<path class="st3" d="M151.2,76c1.3-0.7,2.6-0.7,4-0.7c4.6,0,8.6,2.7,10.6,7.3l8.6-0.7c-2-8.6-9.9-14.6-19.2-14.6
		c-2.6,0-5.3,0.7-7.3,1.3L151.2,76L151.2,76z"/>
	<path class="st4" d="M166.5,86.7c0,6-5.3,10.6-11.3,10.6c-0.7,0-2,0-2.6-0.7l-3.3,8c2,0.7,4,0.7,6,0.7c10.6,0,19.2-8.6,19.2-18.6
		H166.5L166.5,86.7z"/>
</g>
</svg>
