<?xml version="1.0" encoding="utf-8"?>
<!-- Generator: Adobe Illustrator 25.2.1, SVG Export Plug-In . SVG Version: 6.00 Build 0)  -->
<svg version="1.1" id="Layer_1" xmlns="http://www.w3.org/2000/svg" xmlns:xlink="http://www.w3.org/1999/xlink" x="0px" y="0px"
	 viewBox="0 0 256 168" style="enable-background:new 0 0 256 168;" xml:space="preserve">
<style type="text/css">
	.st0{fill:#FFFFFF;}
	.st1{fill:#7F181A;}
</style>
<path class="st0" d="M240,0.8H16C8,0.8,0.8,7.2,0.8,16v136.8c0,8,6.4,15.2,15.2,15.2h224c8,0,15.2-6.4,15.2-15.2V16
	C254.4,7.2,248,0.8,240,0.8z"/>
<path class="st0" d="M240.8,2.4c7.2,0,12.8,5.6,12.8,12.8v137.6c0,7.2-5.6,12.8-12.8,12.8H15.2c-7.2,0-12.8-5.6-12.8-12.8V15.2
	C2.4,8,8,2.4,15.2,2.4H240.8 M240.8,0H15.2C7.2,0,0,6.4,0,15.2v137.6c0,8,6.4,15.2,15.2,15.2h225.6c8,0,15.2-6.4,15.2-15.2V15.2
	C256,6.4,249.6,0,240.8,0z"/>
<g>
	<path class="st1" d="M80.1,37.8H58c-9.7,0.5-17.6,4.4-20,12.5c-1.2,4.2-1.9,8.9-2.8,13.2c-4.8,22.2-9,45-13.5,66.8h171.4
		c13.3,0,22.4-2.8,24.8-13.3c1.2-5.3,2.3-10.5,3.3-15.8c4.2-20.9,8.6-41.8,12.9-63.4L80.1,37.8L80.1,37.8z"/>
	<path class="st0" d="M78.4,70.6c0.9-0.6,2.1-3.5,0.8-4.7c-0.4-0.4-1.2-0.5-2.2-0.3c-0.9,0.2-1.5,0.5-1.8,1
		c-0.6,0.8-1.1,3.2-0.2,4.1C75.8,71.5,77.8,71.1,78.4,70.6z M65.3,65.9c-0.7,4.3-1.4,8.5-2.2,12.7c-4.8,0-9.6,0.2-14.3-0.1
		c0.9-4.1,1.5-8.5,2.4-12.6H46c-1.8,10.5-3.5,21.1-5.6,31.4h5.3c0.8-5.3,1.6-10.6,2.7-15.6c4.5-0.1,9.9-0.3,14.2,0.1
		c-0.9,5.2-2,10.2-2.8,15.5H65c1.6-10.5,3.5-21,5.6-31.4L65.3,65.9C65.3,66,65.3,65.9,65.3,65.9z M139.7,74.9
		c-4.1-1.7-7.3,1.1-8.8,3.8c0.3-1.2,0.5-2.5,0.8-3.8h-4.1c-1,7.8-2.5,15-3.9,22.4h4.6c0.7-4.3,0.9-10.2,2.4-14.4
		c1.2-3.3,4.2-6.2,8.5-4.6C139.2,77,139.6,76.1,139.7,74.9L139.7,74.9z M142.3,92c-0.4-1.4-0.6-2.8-0.4-4.3c0.2-3.1,1.4-6.9,3.1-8.6
		c2.4-2.4,7.2-2,11-0.6c0.1-1.3,0.4-2.4,0.6-3.7c-6.2-1-12.1-0.4-15.3,2.9c-3.1,3.2-5.1,10.6-3.7,15.3c1.7,5.4,9.1,5.8,15.1,3.7
		c0.2-1.1,0.4-2.3,0.6-3.4C150.1,94.9,143.8,95.8,142.3,92L142.3,92z M194.2,75c-4.1-2-7.5,1.4-8.8,3.4c0.4-1,0.4-2.5,0.8-3.5h-4.1
		c-1.1,7.5-2.4,15-4,22.4h4.7c0.1-3,0.6-5.2,1.1-8.1c1-6.2,2.4-13,9.7-11C193.8,77.2,193.9,76,194.2,75L194.2,75z M73.6,74.9
		c-0.1,0-0.1,0.2-0.1,0.3c-1,7.6-2.4,14.8-3.9,22h4.6c1.1-7.5,2.4-15,4-22.4C78.2,74.9,73.6,74.9,73.6,74.9z M114.2,74.5
		c-3.3,0.2-6.2,1.2-8.2,3.3c-2.5,2.6-4.5,8.3-3.9,13.6c0.8,7.4,10.1,7.2,17.5,5.4c0.1-1.3,0.5-2.4,0.6-3.7c-3,1.1-8.3,2.8-11.5,0.8
		c-2.4-1.5-2.4-5.3-1.6-8.6c5-0.2,10.2-0.1,15.2,0c0.3-2.3,1.2-4.9,0.4-7.2C121.8,75,118.1,74.2,114.2,74.5L114.2,74.5z M118.7,82.7
		h-10.9c0.5-3,3.1-5.3,6.1-5.4C117.2,77.2,119.7,78.5,118.7,82.7L118.7,82.7z M96.8,74.9c-3.9-1.5-8.7,0.3-10.7,2
		c0,0.1,0,0.1-0.1,0.1c0,0,0.1,0,0.1-0.1c0-0.7,0.3-1.2,0.3-1.9h-4c-1.7,10.8-3.6,21.6-5.7,32.3h4.6c0.7-4.1,1.1-8.5,2-12.3
		c1.1,4.1,7.9,3.3,10.8,1.7C100.2,93.4,104.8,78,96.8,74.9L96.8,74.9z M93.1,93.1c-2.5,2.6-8.6,2.6-9-1.8c-0.2-1.9,0.5-3.9,0.9-5.9
		s0.6-3.9,1-5.7c2.4-3,9.6-3.3,10.3,1.6C96.8,85.6,95.1,90.9,93.1,93.1z M211.4,65.2c-0.4,3.5-0.9,6.8-1.6,10
		c-11.3-3.6-18.3,4.8-18.1,15.1c0,2,0.4,4,1.6,5.4c2.1,2.4,8.3,3,11.4,1c0.6-0.4,1.2-1.1,1.6-1.6c0.3-0.4,0.8-1.4,0.9-1.1
		c-0.2,1.1-0.4,2.1-0.4,3.3h4.2c0.8-11.6,3.3-21.5,5.2-32L211.4,65.2L211.4,65.2L211.4,65.2z M201.1,94.8c-3.1,0.1-4.7-1.9-4.7-5.1
		c-0.1-5.6,2.3-11.8,7.3-12.3c2.3-0.2,4,0.3,5.7,0.9C207.8,84.5,208.4,94.7,201.1,94.8z M161.2,74.9c-0.2,1.3-0.6,2.4-0.9,3.7
		c2.7-0.7,11.2-2.8,12,0.9c0.3,1.2-0.2,2.5-0.5,3.4c-7.7-0.7-13.9,0.5-15.6,6c-1.1,3.7,0.1,7.3,2.5,8.3c4.5,1.9,10-0.3,11.9-3.3
		c-0.2,1-0.4,2.1-0.3,3.4h4c0.1-3.8,0.6-6.9,1.2-10.3c0.5-2.9,1.4-5.8,1.3-8.4C176.4,72.7,166.7,74.8,161.2,74.9L161.2,74.9z
		 M168.7,93c-2.4,2.3-9.1,3-8.4-2.6c0.6-4.6,5.6-5.6,11.1-4.9C171,88,170.6,91.2,168.7,93L168.7,93z"/>
</g>
</svg>
