<?xml version="1.0" encoding="utf-8"?>
<!-- Generator: Adobe Illustrator 25.2.1, SVG Export Plug-In . SVG Version: 6.00 Build 0)  -->
<svg version="1.1" id="Layer_1" xmlns="http://www.w3.org/2000/svg" xmlns:xlink="http://www.w3.org/1999/xlink" x="0px" y="0px"
	 viewBox="0 0 256 168" style="enable-background:new 0 0 256 168;" xml:space="preserve">
<style type="text/css">
	.st0{fill:#FFFFFF;}
	.st1{fill:#010101;}
	.st2{fill:#F16522;}
	.st3{fill:#E41B24;}
	.st4{fill:#F89E1C;}
</style>
<path class="st0" d="M240,0.8H16C8,0.8,0.8,7.2,0.8,16v136.8c0,8,6.4,15.2,15.2,15.2h224c8,0,15.2-6.4,15.2-15.2V16
	C254.4,7.2,248,0.8,240,0.8z"/>
<path class="st0" d="M240.8,2.4c7.2,0,12.8,5.6,12.8,12.8v137.6c0,7.2-5.6,12.8-12.8,12.8H15.2c-7.2,0-12.8-5.6-12.8-12.8V15.2
	C2.4,8,8,2.4,15.2,2.4H240.8 M240.8,0H15.2C7.2,0,0,6.4,0,15.2v137.6c0,8,6.4,15.2,15.2,15.2h225.6c8,0,15.2-6.4,15.2-15.2V15.2
	C256,6.4,249.6,0,240.8,0z"/>
<g>
	<path class="st1" d="M73.9,149.6v-8.8c0-3.3-2.1-5.5-5.5-5.6c-2-0.1-3.8,0.8-4.9,2.5c-1-1.6-2.7-2.6-4.6-2.5c-1.5,0-3,0.4-4.1,2.1
		v-1.7h-3v14h3.1v-7.7c0-2.4,1.3-3.7,3.4-3.7c2,0,3,1.3,3,3.7v7.8h3.1v-7.7c0-2.4,1.4-3.7,3.4-3.7c2.1,0,3.1,1.3,3.1,3.7v7.8H73.9
		L73.9,149.6z M119.3,135.7h-5v-4.2h-3.1v4.2h-2.8v2.8h2.8v6.4c0,3.2,1.2,5.2,4.8,5.2c1.3,0,2.7-0.4,3.8-1.1l-0.9-2.6
		c-0.9,0.5-1.9,0.8-2.7,0.8c-1.5,0-2-0.9-2-2.3v-6.3h5V135.7L119.3,135.7z M145.2,135.3c-1.8,0-2.9,0.8-3.7,2.1v-1.7h-3v14h3v-7.8
		c0-2.3,1-3.6,3-3.6c0.6,0,1.3,0.1,1.9,0.4l0.9-2.9C146.6,135.5,145.9,135.3,145.2,135.3 M106,136.8c-1.7-1-3.7-1.5-5.7-1.5
		c-3.5,0-5.8,1.7-5.8,4.5c0,2.3,1.7,3.7,4.8,4.1l1.4,0.2c1.7,0.2,2.4,0.7,2.4,1.5c0,1.1-1.1,1.7-3.2,1.7c-2.1,0-3.6-0.7-4.7-1.5
		l-1.4,2.4c1.8,1.2,3.9,1.9,6.1,1.8c4,0,6.4-1.9,6.4-4.6c0-2.4-1.8-3.7-4.9-4.2l-1.4-0.2c-1.3-0.2-2.4-0.4-2.4-1.4
		c0-1,1-1.6,2.7-1.6c1.5,0,3,0.4,4.3,1.2L106,136.8z M187.4,135.3c-1.7,0-2.9,0.8-3.7,2.1v-1.7h-3v14h3v-7.8c0-2.3,1-3.6,3-3.6
		c0.6,0,1.3,0.1,1.9,0.4l0.9-2.9C188.9,135.5,188.1,135.3,187.4,135.3 M148.2,142.7c0,4.2,2.9,7.3,7.4,7.3c2.1,0,3.5-0.5,5-1.7
		l-1.5-2.4c-1,0.8-2.3,1.2-3.6,1.3c-2.4,0-4.2-1.8-4.2-4.5c0-2.7,1.8-4.4,4.2-4.5c1.3,0,2.5,0.4,3.6,1.2l1.5-2.4
		c-1.4-1.2-3.2-1.8-5-1.7C151.2,135.3,148.2,138.4,148.2,142.7 M176.7,142.7v-7h-3v1.7c-1-1.4-2.7-2.1-4.4-2.1c-3.9,0-7,3.1-7,7.3
		c0,4.3,3.1,7.3,7,7.3c1.7,0.1,3.3-0.7,4.4-2v1.7h3V142.7z M165.4,142.7c0-2.5,1.6-4.5,4.2-4.5c2.5,0,4.2,1.9,4.2,4.5
		c0,2.5-1.7,4.5-4.2,4.5C167,147.1,165.4,145.1,165.4,142.7 M128.7,135.3c-4.1,0-6.9,3-6.9,7.3c0,4.4,3,7.3,7.2,7.3
		c2.1,0.1,4.1-0.6,5.7-2l-1.5-2.2c-1.2,0.9-2.6,1.4-4.1,1.5c-2,0-3.7-0.9-4.2-3.4h10.4c0-0.4,0.1-0.8,0.1-1.2
		C135.3,138.3,132.6,135.3,128.7,135.3 M128.7,138c2,0,3.2,1.2,3.5,3.4H125C125.3,139.4,126.5,138,128.7,138 M204.9,142.7v-12.6h-3
		v7.3c-1-1.4-2.7-2.1-4.4-2c-3.9,0-7,3.1-7,7.3c0,4.3,3.1,7.3,7,7.3c1.7,0.1,3.3-0.7,4.4-2v1.7h3V142.7L204.9,142.7z M193.6,142.7
		c0-2.5,1.6-4.5,4.2-4.5c2.5,0,4.2,1.9,4.2,4.5c0,2.5-1.7,4.5-4.2,4.5C195.2,147.1,193.6,145.1,193.6,142.7 M91,142.7v-7h-3v1.7
		c-1-1.4-2.7-2.1-4.4-2.1c-3.9,0-7,3.1-7,7.3c0,4.3,3.1,7.3,7,7.3c2,0,3.4-0.8,4.4-2v1.7h3V142.7z M79.7,142.7
		c0-2.5,1.6-4.5,4.2-4.5c2.5,0,4.2,1.9,4.2,4.5c0,2.5-1.7,4.5-4.2,4.5C81.3,147.1,79.7,145.1,79.7,142.7"/>
	<path class="st2" d="M105,29.2h46v82.7h-46L105,29.2L105,29.2z"/>
	<path class="st3" d="M107.9,70.6c0-16.1,7.4-31.4,20.1-41.3c-22.8-18-55.9-14-73.9,8.8S40.1,94,63,111.9c19.1,15,45.9,15,65,0
		C115.3,102,107.9,86.7,107.9,70.6"/>
	<path class="st4" d="M213.1,70.6c0,29.1-23.6,52.6-52.6,52.6c-11.8,0-23.2-4-32.5-11.2c12.7-10,20.1-25.2,20.1-41.3
		c0-16.1-7.4-31.4-20.1-41.3c22.8-17.9,55.9-14,73.9,8.9C209.1,47.4,213.1,58.8,213.1,70.6"/>
</g>
</svg>
