<svg xmlns="http://www.w3.org/2000/svg" width="2007.148" height="744.49" viewBox="0 0 2007.148 744.49"><g transform="translate(44.867 141.001)"><path d="M-2444.8-3760h.062v-4.089c2.11.222,4.006.375,5.356.375,5.223,0,8.422-1.583,11.289-7.758l1.369-2.988-18.961-37.652h4.89l16.156,32.508h.274l15.355-32.508h4.8l-20.3,42.288c-3.708,7.671-7.71,10.2-15.084,10.2A39.375,39.375,0,0,1-2444.8-3760Zm-430.677-52.044h3.434l.358,2.2a95.187,95.187,0,0,1,19.505-3.276,18.73,18.73,0,0,1,12.788,3.87c4.213,3.648,5.646,9.539,5.646,15.957s-2.106,13.056-8.006,16.55a29.682,29.682,0,0,1-14.513,3.363,50.336,50.336,0,0,1-15-2.4v15.143l-4.213.088Zm4.213,6.11v26.023a41.763,41.763,0,0,0,14.577,2.55c12.512,0,18.431-4.4,18.431-15.891,0-10.815-4.845-15.65-14.282-15.65A85.411,85.411,0,0,0-2871.263-3805.935Zm-91.76,33.32v-426.969c0-39.829,14.866-77.272,41.855-105.436s62.881-43.672,101.05-43.672l120.819.176c78.552.165,142.445,66.976,142.432,148.934v90.86c0,82.218-64.106,149.118-142.9,149.13h-170.753a6.741,6.741,0,0,1-6.594-6.879,6.741,6.741,0,0,1,6.594-6.879h170.753c71.526-.012,129.717-60.739,129.717-135.371v-90.861c.011-74.386-57.978-135.024-129.269-135.174l-120.8-.175c-34.639,0-67.215,14.079-91.715,39.643s-37.994,59.553-37.994,95.707v426.969a6.741,6.741,0,0,1-6.594,6.879A6.741,6.741,0,0,1-2963.023-3772.615Zm395.982-4.572c-4.213-3.649-5.646-9.541-5.646-15.935,0-6.727,2.107-13.056,8.007-16.484a29.147,29.147,0,0,1,14.576-3.428,52.969,52.969,0,0,1,14.934,2.374v-17.255h4.214v53.519h-3.414l-.38-2.2a93.4,93.4,0,0,1-19.5,3.3q-.712.056-1.424.056A18.454,18.454,0,0,1-2567.041-3777.187Zm17.294-31.872c-12.511,0-18.431,4.4-18.431,15.894,0,10.878,4.866,15.647,14.281,15.647a89.188,89.188,0,0,0,18.728-2.923v-26.089a41.8,41.8,0,0,0-14.311-2.53Zm710.082,32.991a10.906,10.906,0,0,1-4-9.1,10.623,10.623,0,0,1,6.089-10.2c3.793-1.867,8.848-2.022,13.5-2.022,3.791,0,8.869.219,13.082.526v-.679c0-5.891-3.728-7.826-13.861-7.826-3.94,0-8.721.219-13.292.66v-7.607c5.076-.439,10.784-.724,15.505-.724,6.32,0,12.784.506,16.852,3.495s4.927,7.319,4.927,12.9v22.288l-7.982-.044-.3-2.2a83.178,83.178,0,0,1-19.589,3.294q-.633.045-1.266.045A18.122,18.122,0,0,1-1839.664-3776.068Zm5.773-9.65c0,3.518,2.106,5.058,7.774,5.058a70.1,70.1,0,0,0,15.168-2.2v-7.339c-4.217-.375-8.427-.595-13.019-.595C-1831.321-3790.794-1833.892-3789.232-1833.892-3785.717Zm-473.734,9.65a11.915,11.915,0,0,1-3.913-10.237,11.654,11.654,0,0,1,6.021-9.06c3.791-1.867,8.869-2.022,13.522-2.022,3.774,0,8.848.219,13.063.526v-.679c0-5.891-3.707-7.826-13.859-7.826-3.92,0-8.723.219-13.294.66v-7.607c5.076-.439,10.808-.724,15.525-.724,6.322,0,12.786.506,16.852,3.495s4.929,7.319,4.929,12.9v22.288l-8.047-.044-.273-2.2a83.217,83.217,0,0,1-19.59,3.294q-.634.045-1.266.045A18.122,18.122,0,0,1-2307.626-3776.068Zm5.752-9.65c0,3.518,2.105,5.058,7.793,5.058a69.993,69.993,0,0,0,15.147-2.2v-7.339c-4.214-.375-8.427-.595-12.995-.595C-2299.282-3790.794-2301.874-3789.232-2301.874-3785.717Zm-170.965,12.375a49.323,49.323,0,0,1-16.158-2.834l-.208,1.779h-2.866v-53.519h4.214v17.957a97.973,97.973,0,0,1,19.084-3.122,18.738,18.738,0,0,1,12.788,3.869c4.213,3.649,5.643,9.538,5.643,15.957s-2.1,13.056-8.006,16.55a29.623,29.623,0,0,1-13.7,3.373Q-2472.445-3773.332-2472.838-3773.342Zm-15.018-32.6v25.958a40.525,40.525,0,0,0,14.576,2.615c12.512,0,18.433-4.4,18.433-15.891,0-10.814-4.847-15.649-14.286-15.649A85.259,85.259,0,0,0-2487.857-3805.937Zm592.791,32.6h.045Zm-11.67-5.385a20.12,20.12,0,0,1-2.657-11.384v-14.111h-7.287v-7.825h7.287l1.075-11.408h8.89v11.408h14.219v7.825h-14.219v12.089a18.888,18.888,0,0,0,.99,7.164c1.074,2.529,3.435,3.495,6.592,3.495a43.158,43.158,0,0,0,7.2-.747v7.539a55.8,55.8,0,0,1-10.423,1.34C-1899.917-3773.35-1904.318-3774.781-1906.735-3778.727Zm-164.582.087c-5.855-5.076-7.645-12.9-7.645-21.319,0-7.539,2.294-16.485,9.917-21.694,5.944-4.023,13.293-4.858,20.731-4.858,5.432,0,11.016.375,17.081.9v9.165c-5.2-.439-11.649-.812-16.639-.812-13.945,0-19.865,5.516-19.865,17.3s5.5,17.364,15.776,17.364a107.032,107.032,0,0,0,21.8-3.056v9.1a117.252,117.252,0,0,1-23.6,3.209C-2059.816-3773.342-2066.387-3774.4-2071.317-3778.639Zm-545.84,1.12c-4.21-3.8-5.643-9.319-5.643-15.648s1.938-12.462,6.721-16.112a23.278,23.278,0,0,1,14.068-3.8,24.451,24.451,0,0,1,14.432,3.649c5.226,3.648,6.319,10.065,6.319,17.362h-37.118c.148,7.76,2.569,14.617,16.579,14.617a104.683,104.683,0,0,0,18.665-2.2v3.957a106.152,106.152,0,0,1-18.957,2.307l-.066.044C-2609.087-3773.342-2613.573-3774.4-2617.157-3777.519Zm-1.072-18.439h32.442c-.361-8.572-4.574-13.188-16.224-13.188C-2613.573-3809.146-2617.514-3803.763-2618.229-3795.958Zm464.949,18.658c-5.015-3.428-6.8-9.1-6.8-15.87s1.789-12.55,6.8-15.978c4.359-3.055,10.129-3.934,17.356-3.934s12.869.879,17.3,3.934c4.99,3.428,6.717,9.188,6.717,15.89s-1.788,12.529-6.717,15.957c-4.426,3.122-10.218,3.957-17.3,3.957S-2148.921-3774.244-2153.28-3777.3Zm3.556-16.176c0,8.572,4.214,12.221,13.8,12.221s13.649-3.055,13.649-11.627-4.063-12.31-13.649-12.31S-2149.724-3802.049-2149.724-3793.476Zm-33.615,20.133h.079Zm-513.294-4.176c-4.214-3.8-5.625-9.321-5.625-15.649s1.914-12.462,6.722-16.112a23.189,23.189,0,0,1,14.07-3.8,24.43,24.43,0,0,1,14.428,3.647c5.2,3.649,6.215,10.065,6.215,17.362h-36.969c.146,7.761,2.569,14.618,16.578,14.618a104.665,104.665,0,0,0,18.641-2.2v3.955a105.832,105.832,0,0,1-18.955,2.309l-.085.043C-2688.547-3773.344-2693.054-3774.4-2696.633-3777.519Zm-1.055-18.441h32.441c-.358-8.571-4.57-13.187-16.219-13.187C-2693.054-3809.147-2696.97-3803.763-2697.688-3795.96Zm-120.807,18.594c-4.571-3.361-6.446-8.79-6.446-15.8s1.875-12.462,6.446-15.89c4.067-3.056,9.647-4.022,16.136-4.022s11.944.966,16.093,4.022c4.636,3.428,6.424,9.011,6.424,15.8s-1.852,12.531-6.424,15.892c-4.212,3.122-9.731,4.023-16.093,4.023S-2814.428-3774.311-2818.495-3777.366Zm-1.937-16.11c0,11.1,5.5,16.11,18.073,16.11s18.009-4.044,18.009-15.517c0-11.1-5.5-16.175-18.009-16.175C-2814.849-3809.059-2820.432-3804.973-2820.432-3793.476Zm623.739,16.176c-4.425-3.736-5.713-9.6-5.713-15.958,0-5.955,1.854-12.461,7.354-16.11,4.508-3.056,10.065-3.713,15.862-3.713a125.507,125.507,0,0,1,12.639.724v8.069c-3.648-.377-8.007-.661-11.5-.661-9.587,0-14.1,3.12-14.1,11.781,0,8.11,3.372,11.627,11.228,11.627a82.412,82.412,0,0,0,15.147-1.934v7.736a86.262,86.262,0,0,1-17.563,2.4C-2187.963-3773.351-2193.008-3774.042-2196.693-3777.3Zm179.342-.282c-4-3.428-5.789-9.319-5.789-15.738,0-5.736,1.788-12.153,6.8-15.892,4.422-3.273,10.069-3.934,15.8-3.934,5.144,0,11.21.594,15.634,3.8,5.793,4.241,6.317,10.813,6.317,18.549h-34.248c.209,5.76,3.135,9.474,13.288,9.474a125,125,0,0,0,19.235-1.935v7.386a131.95,131.95,0,0,1-21.742,2.461C-2007.979-3773.407-2013.347-3774.153-2017.351-3777.583Zm4.578-20h24.3c-.292-6.11-3.729-8.792-12.074-8.792C-2008.967-3806.375-2012.129-3803.232-2012.774-3797.583Zm137.447,23.185v-37.65h8.215l.359,2.395a60.385,60.385,0,0,1,17.861-3.428,10.964,10.964,0,0,1,1.286,0v9.123h-3.495a54.616,54.616,0,0,0-14.16,1.933v27.8Zm-495.664.156v-51.211h20.877c9.794,0,15.8.132,20.789,3.274a10.924,10.924,0,0,1,5.015,10.134c0,5.361-2.11,8.945-7.731,11.339v.286c6.317,1.494,10.362,4.858,10.362,12.088a11.119,11.119,0,0,1-5.2,10.375v.153c-5.158,3.429-11.371,3.562-22.724,3.562Zm11-8.44h13.985c9.652,0,13.294-1.12,13.294-6.592,0-5.891-5.014-6.594-13.376-6.594h-13.9Zm-.043-21.055h11.5c9.5,0,13.292-1.187,13.292-6.769,0-5.979-4.8-6.594-13.376-6.594v-.042h-11.417Zm392.148,29.365v-37.672h8.216l.357,2.395a80.292,80.292,0,0,1,19.3-3.428,17.289,17.289,0,0,1,12.362,3.867c2.845,2.682,3.919,6.42,3.919,11.782v23.035h-9.987v-20.771c0-6.858-3.349-9.319-9.352-9.319a66.128,66.128,0,0,0-14.743,2.374v27.737Zm-288,0v-37.672h8.217l.359,2.395a80.257,80.257,0,0,1,19.292-3.428,17.3,17.3,0,0,1,12.369,3.867c2.843,2.682,3.918,6.42,3.918,11.782v23.035h-9.985v-20.771c0-6.858-3.351-9.319-9.356-9.319a66.126,66.126,0,0,0-14.745,2.374v27.737Zm-471.184-.021-13.947-31.235h-.272l-13.735,31.235h-3.856l-14.744-37.653h4.634l12.365,31.607h.3l13.439-31.607h3.855l13.777,31.607h.295l12.072-31.607h4.57l-14.872,37.653Zm78.361-37.653h3.414l.358,2.2c7.643-2.023,11.229-3.274,17.945-3.274h.506v4.175h-1.009c-5.647,0-9.081.814-17,2.969v31.539l-4.214.046Zm860.762,37.65v-53.519h10.089v53.519Zm-639.979-190.141v-318.92c0-28.4-22.142-51.5-49.358-51.5h-52.407a6.741,6.741,0,0,1-6.594-6.879,6.741,6.741,0,0,1,6.594-6.879h52.407c34.489,0,62.544,29.274,62.544,65.256v318.92a6.741,6.741,0,0,1-6.594,6.879A6.742,6.742,0,0,1-2427.928-3964.539Zm159.163,4.087h-51.965a6.737,6.737,0,0,1-6.589-6.879,6.738,6.738,0,0,1,6.589-6.879h51.97c25.192.019,48.822-10.205,66.625-28.758l121.563-126.84a45.624,45.624,0,0,1,66.347,0l121.124,126.382c17.794,18.552,41.431,28.77,66.6,28.757h42.257a6.744,6.744,0,0,1,6.6,6.879,6.743,6.743,0,0,1-6.6,6.879h-42.286c-28.664,0-55.616-11.641-75.892-32.784l-121.126-126.383a32.8,32.8,0,0,0-47.7,0l-121.564,126.839c-20.286,21.145-47.245,32.786-75.912,32.786Zm188.189-219.195-121.564-126.839c-17.8-18.554-41.376-28.762-66.618-28.757h-51.972a6.738,6.738,0,0,1-6.589-6.879,6.738,6.738,0,0,1,6.589-6.879h52.014c28.664,0,55.619,11.64,75.9,32.784l121.571,126.844a32.78,32.78,0,0,0,23.847,10.318,32.8,32.8,0,0,0,23.846-10.314l121.128-126.363c20.28-21.158,47.168-32.817,75.928-32.785h42.252a6.744,6.744,0,0,1,6.6,6.879,6.744,6.744,0,0,1-6.6,6.879h-42.309c-25.139,0-48.769,10.211-66.547,28.757l-121.122,126.359A45.634,45.634,0,0,1-2047.4-4165.3,45.621,45.621,0,0,1-2080.577-4179.646Zm-739.541-169.047h0Zm0,0Z" transform="translate(3739.93 4326.734)" fill="#939598"/><path d="M-2701.768-3635.332l-126.391-131.876h19.527a95.093,95.093,0,0,0,69.051-29.826l100.08-104.424a18.4,18.4,0,0,1,26.205,0l99.743,104.138a95.032,95.032,0,0,0,69.051,29.737l12.218.089-126.643,132.162a98.678,98.678,0,0,1-71.422,30.821A98.711,98.711,0,0,1-2701.768-3635.332Zm-231.716-241.53c-39.385-41.183-39.385-107.86,0-149.042l77.014-80.2a14.45,14.45,0,0,0,5.139,1.078h42.72a67.3,67.3,0,0,1,48.3,20.9l100.1,104.38a46.506,46.506,0,0,0,67.682,0l99.722-103.984a67.293,67.293,0,0,1,48.3-20.88h34.8a14.215,14.215,0,0,0,5.434-1.145l76.529,79.852v-.022c39.455,41.152,39.455,107.889,0,149.041l-76.529,79.852a14,14,0,0,0-5.434-1.143h-34.8a67.3,67.3,0,0,1-48.3-20.88l-99.722-104.029c-18.073-18.858-49.608-18.858-67.7,0l-100.081,104.424a67.32,67.32,0,0,1-48.3,20.9H-2851.5a13.9,13.9,0,0,0-5.139,1.078Zm294.006-124.47-100.082-104.446a95.068,95.068,0,0,0-69.05-29.826h-19.548l126.18-131.766c39.44-41.168,103.4-41.168,142.842,0l126.643,132.139H-2444.5a94.909,94.909,0,0,0-69.051,29.849l-99.722,104.049a18.112,18.112,0,0,1-13.1,5.651A18.112,18.112,0,0,1-2639.478-4001.331Zm1028.585-271.18h.087l-23.762-24.815a16.216,16.216,0,0,1,0-22.264l23.762-24.793a14.683,14.683,0,0,1,21.38,0l23.737,24.793a16.216,16.216,0,0,1,0,22.264l-23.844,24.815a14.74,14.74,0,0,1-10.679,4.616A14.748,14.748,0,0,1-1610.893-4272.511Z" transform="translate(2918.155 4208)" fill="#32bcad"/></g></svg>