<?xml version="1.0" encoding="utf-8"?>
<!-- Generator: Adobe Illustrator 25.2.1, SVG Export Plug-In . SVG Version: 6.00 Build 0)  -->
<svg version="1.1" id="Layer_1" xmlns="http://www.w3.org/2000/svg" xmlns:xlink="http://www.w3.org/1999/xlink" x="0px" y="0px"
	 viewBox="0 0 256 168" style="enable-background:new 0 0 256 168;" xml:space="preserve">
<style type="text/css">
	.st0{fill:#FFFFFF;}
	.st1{fill:#005098;}
	.st2{fill:#F6A500;}
</style>
<path class="st0" d="M240,0.8H16C8,0.8,0.8,7.2,0.8,16v136.8c0,8,6.4,15.2,15.2,15.2h224c8,0,15.2-6.4,15.2-15.2V16
	C254.4,7.2,248,0.8,240,0.8z"/>
<path class="st0" d="M240.8,2.4c7.2,0,12.8,5.6,12.8,12.8v137.6c0,7.2-5.6,12.8-12.8,12.8H15.2c-7.2,0-12.8-5.6-12.8-12.8V15.2
	C2.4,8,8,2.4,15.2,2.4H240.8 M240.8,0H15.2C7.2,0,0,6.4,0,15.2v137.6c0,8,6.4,15.2,15.2,15.2h225.6c8,0,15.2-6.4,15.2-15.2V15.2
	C256,6.4,249.6,0,240.8,0z"/>
<g>
	<path class="st1" d="M97.2,114.4l10-61.5h16.9l-10.8,61.5H97.2z M174.1,54.4c-3.1-1.5-8.5-2.3-14.6-2.3c-16.1,0-27.7,8.5-28.4,20
		c0,8.5,8.5,13.8,14.6,16.9c6.2,3.1,8.5,4.6,8.5,7.7c0,3.8-5.4,6.1-10,6.1c-6.9,0-10-0.8-15.4-3.1l-2.3-0.8l-2.3,13.8
		c3.8,1.5,10.8,3.1,18.4,3.1c17.7,0,29.2-8.5,29.2-20.8c0-6.9-4.6-12.3-13.8-16.9c-6.1-3.1-9.2-4.6-9.2-7.7c0-2.3,3.1-5.4,9.2-5.4
		c5.4,0,9.2,0.8,12.3,2.3l1.5,0.8L174.1,54.4L174.1,54.4z M216.4,53.6h-13.1c-3.9,0-6.9,0.8-8.5,5.4l-24.6,56.1h17.7
		c0,0,3.1-7.7,3.9-9.2h21.5c0.8,2.3,2.3,9.2,2.3,9.2H231L216.4,53.6L216.4,53.6z M196.4,92.8c1.5-3.8,6.9-16.9,6.9-16.9
		s1.5-3.8,2.3-6.2l0.8,5.4c0,0,3.1,14.6,3.9,17.7L196.4,92.8L196.4,92.8z M83.4,53.6L67.3,95.1l-1.5-8.4c-3.1-10-12.3-20-23.1-25.4
		l14.6,53H75l26.1-60.7H83.4z"/>
	<path class="st2" d="M51.9,52.9H25v1.5c20.8,5.4,34.6,16.9,40.7,32.3l-6.2-28.4C58.1,54.4,55,53.6,51.9,52.9z"/>
</g>
</svg>
